<svg xmlns="http://www.w3.org/2000/svg" width="24" height="24" viewBox="0 0 24 24">
  <g id="ic_filter" transform="translate(22375 19136.998)">
    <g id="Rectangle_4461-3" data-name="Rectangle 4461-3" transform="translate(-22375 -19136.998)">
      <rect id="Rectangle_4461-3-2" data-name="Rectangle 4461-3" width="24" height="24" fill="#0277bd" opacity="0"/>
    </g>
    <path id="path" d="M15.932,16.976a2.255,2.255,0,0,1-4.267,0h-8.4a.762.762,0,0,1,0-1.524h8.4a2.255,2.255,0,0,1,4.267,0h1.806a.762.762,0,0,1,0,1.524Zm-2.9-.762a.762.762,0,1,0,.762-.762.72.72,0,0,0-.762.762Zm-.4-10.667a2.255,2.255,0,0,1-4.267,0h-5.1A.72.72,0,0,1,2.5,4.786a.72.72,0,0,1,.762-.762h5.1a2.255,2.255,0,0,1,4.267,0h5.1a.72.72,0,0,1,.762.762.72.72,0,0,1-.762.762Zm-2.9-.762a.762.762,0,1,0,1.524,0,.762.762,0,1,0-1.524,0Zm8,6.476h-8.4a2.255,2.255,0,0,1-4.267,0H3.262a.762.762,0,1,1,0-1.524H5.068a2.255,2.255,0,0,1,4.267,0h8.4a.762.762,0,0,1,0,1.524ZM6.44,10.5a.72.72,0,0,0,.762.762.762.762,0,0,0,0-1.524.72.72,0,0,0-.762.762Z" transform="translate(-22373.5 -19135.498)" fill="#0277bd"/>
  </g>
</svg>
