<?xml version="1.0" encoding="utf-8"?>
<!-- Svg Vector Icons : http://www.onlinewebfonts.com/icon -->
<!DOCTYPE svg PUBLIC "-//W3C//DTD SVG 1.1//EN" "http://www.w3.org/Graphics/SVG/1.1/DTD/svg11.dtd">
<svg version="1.1" xmlns="http://www.w3.org/2000/svg" xmlns:xlink="http://www.w3.org/1999/xlink" x="0px" y="0px" viewBox="0 0 1000 1000" enable-background="new 0 0 1000 1000" xml:space="preserve">
<metadata> Svg Vector Icons : http://www.onlinewebfonts.com/icon </metadata>
<g><g transform="translate(0.000000,511.000000) scale(0.100000,-0.100000)"><path d="M6864.9,4963.5c-81.7-38.8-535-483.9-2352.3-2301.2C3277.3,1422.8,2248.1,375.3,2229.8,336.5c-20.4-38.8-40.8-124.6-47-194c-18.4-247.1-161.3-89.8,2366.6-2601.4c1729.5-1719.3,2305.3-2280.8,2362.5-2301.2c218.5-77.6,357.3-14.3,677.9,308.3c214.4,216.4,230.7,238.9,198.1,263.4c-20.4,16.3-945.4,933.1-2056.2,2041.9C3728.5-151.5,3712.2-133.1,3677.5-16.7c-28.6,98-30.6,132.7-8.2,228.7l24.5,114.3l2064.3,2068.4l2066.4,2068.5l-247.1,240.9c-194,189.9-265.4,247.1-345.1,273.6C7095.6,5024.8,6985.4,5020.7,6864.9,4963.5z"/></g></g>
</svg>